<svg id="Layer_1" data-name="Layer 1" xmlns="http://www.w3.org/2000/svg" viewBox="0 0 260 49.46"><defs><style>.cls-1{fill:#fff;}</style></defs><title>dm-logo-white</title><path class="cls-1" d="M31.34,5.72a1.39,1.39,0,0,0-1.06.48,1.45,1.45,0,0,0,.13,2l3.29,3.29c6.5,6.5,6.86,17.48.55,24.16-8.45,8.94-24.13,6.74-29-6.6C3.32,23.75,5.07,16.18,9,12.23L11.25,10a.93.93,0,0,1,1.31,0h0a.93.93,0,0,1,0,1.31l-2.2,2.2C7,16.93,5.33,23.47,6.88,28c4.17,12.25,18.34,14.37,26,6.36,5.68-6,5.34-15.81-.49-21.63L26,6.35a1.39,1.39,0,0,0-1-.41,1.37,1.37,0,0,0-.92.34,1.45,1.45,0,0,0,0,2.09l6.38,6.38a12.71,12.71,0,0,1,.38,17.72c-6.38,6.66-18.29,4.72-21.44-5.83a11.26,11.26,0,0,1,2.92-11.13l2.22-2.22a.93.93,0,0,1,1.31,0h0a.93.93,0,0,1,0,1.31l-2.21,2.21a9.48,9.48,0,0,0-2.45,9.3C13.8,35.17,24,36.88,29.44,31.23a10.85,10.85,0,0,0-.31-15.15L19.46,6.4a1.4,1.4,0,0,0-2,.07,1.45,1.45,0,0,0,.13,2l9.65,9.65a8.07,8.07,0,0,1,.05,11.41,7.91,7.91,0,0,1-10.64.32A8,8,0,0,1,16.36,18L17.7,16.7a1.1,1.1,0,0,1,1.55,0h0a1.1,1.1,0,0,1-.3,1.76,6,6,0,1,0,7.37,9.3,6.16,6.16,0,0,0-.42-8.35L12.38,5.89a.68.68,0,0,0-1,0L7.06,10.25C2.41,14.9.31,23.83,2.62,30c5.65,15.12,23.3,17.79,33.19,8a20.21,20.21,0,0,0-.17-28.58l-3.3-3.3A1.4,1.4,0,0,0,31.34,5.72ZM24.06,26.1a3.25,3.25,0,1,1,0-4.6A3.26,3.26,0,0,1,24.06,26.1Z"/><path class="cls-1" d="M64.46,30.14a8.6,8.6,0,0,1-7.56,4.39A10,10,0,0,1,49,30.14a10.45,10.45,0,0,1-1.62-5.31,9.63,9.63,0,0,1,9.42-9.56,8.53,8.53,0,0,1,7.66,4.57V11.13H61.37V8.95h5.41V31.86h3.09V34H64.46Zm.07-5.31a7.37,7.37,0,0,0-7.38-7.34,7.43,7.43,0,1,0,7.38,7.34Z"/><path class="cls-1" d="M76.1,31.86h3.09V34H70.62V31.86h3.16V17.77H70.69V15.59H76.1Zm0-19.29H73.78V8.95H76.1Z"/><path class="cls-1" d="M98.1,28.87a9.79,9.79,0,1,1,.77-3.9v.7H82a7.35,7.35,0,0,0,13.63,3.2Zm-1.41-5.1a7.52,7.52,0,0,0-7.56-6.4A7.42,7.42,0,0,0,82,23.78Z"/><path class="cls-1" d="M104,36a6.72,6.72,0,0,0,6.08,3.62,7.13,7.13,0,0,0,5.1-2.25,6.92,6.92,0,0,0,1.9-5.45V30a8.23,8.23,0,0,1-7.52,4.53c-2.64,0-6.57-1.58-8.12-4.53a11.28,11.28,0,0,1-1.37-5.13,9.54,9.54,0,0,1,1.58-5.34,9.9,9.9,0,0,1,8-4.25,8.27,8.27,0,0,1,7.38,4.25V15.59h5.41v2.18H119.4V31.51c0,2.81-.32,5-2.28,7.1a9.59,9.59,0,0,1-7.17,3.06c-3.65,0-7.38-2-8.61-5.62Zm13.25-11.17a7.43,7.43,0,1,0-7.38,7.49A7.45,7.45,0,0,0,117.25,24.87Z"/><path class="cls-1" d="M123.26,24.94a9.66,9.66,0,1,1,9.66,9.59A9.67,9.67,0,0,1,123.26,24.94Zm17,0a7.34,7.34,0,1,0-7.34,7.34A7.33,7.33,0,0,0,140.27,24.9Z"/><path class="cls-1" d="M146.32,19.28h-2.42v-4h6.33v2.81a6.22,6.22,0,0,1,5.41-3.27,6.39,6.39,0,0,1,5.83,3.94,6.74,6.74,0,0,1,6.15-3.94A7.24,7.24,0,0,1,173,17.21c1.48,1.72,1.48,3.58,1.48,5.73V30h2.42v4h-9.14V30h2.42V24a7,7,0,0,0-.56-3.41A3.67,3.67,0,0,0,166.59,19a4.16,4.16,0,0,0-3.16,1.41,5.06,5.06,0,0,0-.88,3.55v6H165v4h-9.14V30h2.42V24.27a7.43,7.43,0,0,0-.56-3.51A3.44,3.44,0,0,0,154.61,19a3.66,3.66,0,0,0-3,1.37,5.48,5.48,0,0,0-1,3.83V30H153v4h-9.14V30h2.42Z"/><path class="cls-1" d="M185,30h2.42v4H178.3V30h2.46V19.28h-2.42v-4H185Zm0-16.55h-4.29V8.95H185Z"/><path class="cls-1" d="M203.43,15.27v3.87l-9,10.89h5.76V28h3.76V34H188.6V30.59l9.52-11.32h-5.34v2.21H189V15.27Z"/><path class="cls-1" d="M223.53,28.52a9.63,9.63,0,0,1-8.86,6,9.76,9.76,0,0,1-9.87-9.8,9.76,9.76,0,0,1,9.77-10,10.05,10.05,0,0,1,7,3,9.81,9.81,0,0,1,2.64,7l-.14,1.51H208.91a5.79,5.79,0,0,0,5.62,4.5,5.22,5.22,0,0,0,4.53-2.25ZM220.26,23a6,6,0,0,0-5.9-4.43A5.81,5.81,0,0,0,208.88,23Z"/><path class="cls-1" d="M231.72,18.47a6.24,6.24,0,0,1,5.62-3.41v4.39a5.71,5.71,0,0,0-3.69,1.37C232.25,22,232,23.53,232,25.29V30h2.42v4h-9.14V30h2.42V19.28h-2.42v-4h6.4Z"/><path class="cls-1" d="M238.71,24.58a9.84,9.84,0,1,1,9.8,9.95A9.89,9.89,0,0,1,238.71,24.58Zm15.46.07a5.62,5.62,0,1,0-5.66,5.66A5.67,5.67,0,0,0,254.17,24.66Z"/></svg>