<svg id="Layer_1" data-name="Layer 1" xmlns="http://www.w3.org/2000/svg" xmlns:xlink="http://www.w3.org/1999/xlink" viewBox="0 0 260 49.46"><defs><style>.cls-1{fill:url(#linear-gradient);}.cls-2{fill:url(#linear-gradient-2);}.cls-3{fill:url(#linear-gradient-3);}.cls-4{fill:url(#linear-gradient-4);}.cls-5{fill:url(#linear-gradient-5);}.cls-6{fill:url(#linear-gradient-6);}.cls-7{fill:url(#linear-gradient-7);}.cls-8{fill:url(#linear-gradient-8);}.cls-9{fill:url(#linear-gradient-9);}.cls-10{fill:url(#linear-gradient-10);}.cls-11{fill:url(#linear-gradient-11);}.cls-12{fill:url(#linear-gradient-12);}.cls-13{fill:url(#linear-gradient-13);}.cls-14{fill:url(#linear-gradient-14);}</style><linearGradient id="linear-gradient" x1="1.67" y1="24.73" x2="41.64" y2="24.73" gradientUnits="userSpaceOnUse"><stop offset="0.04" stop-color="#0078ff"/><stop offset="1" stop-color="#0096ff"/></linearGradient><linearGradient id="linear-gradient-2" x1="-167.16" y1="20.63" x2="70.26" y2="21.78" xlink:href="#linear-gradient"/><linearGradient id="linear-gradient-3" x1="-11.18" y1="24.41" x2="79.36" y2="24.84" xlink:href="#linear-gradient"/><linearGradient id="linear-gradient-4" x1="51.52" y1="10.64" x2="76.14" y2="10.76" xlink:href="#linear-gradient"/><linearGradient id="linear-gradient-5" x1="-103.04" y1="23.97" x2="99.15" y2="24.95" xlink:href="#linear-gradient"/><linearGradient id="linear-gradient-6" x1="-113.1" y1="27.39" x2="122.76" y2="28.53" xlink:href="#linear-gradient"/><linearGradient id="linear-gradient-7" x1="-60.76" y1="23.97" x2="142.87" y2="24.95" xlink:href="#linear-gradient"/><linearGradient id="linear-gradient-8" x1="-171.53" y1="22.85" x2="177.45" y2="24.53" xlink:href="#linear-gradient"/><linearGradient id="linear-gradient-9" x1="90.43" y1="24.22" x2="187.65" y2="24.68" xlink:href="#linear-gradient"/><linearGradient id="linear-gradient-10" x1="139.72" y1="11.01" x2="185.12" y2="11.22" xlink:href="#linear-gradient"/><linearGradient id="linear-gradient-11" x1="42.58" y1="23.92" x2="204.18" y2="24.69" xlink:href="#linear-gradient"/><linearGradient id="linear-gradient-12" x1="19.77" y1="23.68" x2="224.51" y2="24.67" xlink:href="#linear-gradient"/><linearGradient id="linear-gradient-13" x1="110.66" y1="23.97" x2="237.49" y2="24.58" xlink:href="#linear-gradient"/><linearGradient id="linear-gradient-14" x1="51.34" y1="23.67" x2="258.67" y2="24.67" xlink:href="#linear-gradient"/></defs><title>dm-logo-blue</title><path class="cls-1" d="M31.34,5.72a1.39,1.39,0,0,0-1.06.48,1.45,1.45,0,0,0,.13,2l3.29,3.29c6.5,6.5,6.86,17.48.55,24.16-8.45,8.94-24.13,6.74-29-6.6C3.32,23.75,5.07,16.18,9,12.23L11.25,10a.93.93,0,0,1,1.31,0h0a.93.93,0,0,1,0,1.31l-2.2,2.2C7,16.93,5.33,23.47,6.88,28c4.17,12.25,18.34,14.37,26,6.36,5.68-6,5.34-15.81-.49-21.63L26,6.35a1.39,1.39,0,0,0-1-.41,1.37,1.37,0,0,0-.92.34,1.45,1.45,0,0,0,0,2.09l6.38,6.38a12.71,12.71,0,0,1,.38,17.72c-6.38,6.66-18.29,4.72-21.44-5.83a11.26,11.26,0,0,1,2.92-11.13l2.22-2.22a.93.93,0,0,1,1.31,0h0a.93.93,0,0,1,0,1.31l-2.21,2.21a9.48,9.48,0,0,0-2.45,9.3C13.8,35.17,24,36.88,29.44,31.23a10.85,10.85,0,0,0-.31-15.15L19.46,6.4a1.4,1.4,0,0,0-2,.07,1.45,1.45,0,0,0,.13,2l9.65,9.65a8.07,8.07,0,0,1,.05,11.41,7.91,7.91,0,0,1-10.64.32A8,8,0,0,1,16.36,18L17.7,16.7a1.1,1.1,0,0,1,1.55,0h0a1.1,1.1,0,0,1-.3,1.76,6,6,0,1,0,7.37,9.3,6.16,6.16,0,0,0-.42-8.35L12.38,5.89a.68.68,0,0,0-1,0L7.06,10.25C2.41,14.9.31,23.83,2.62,30c5.65,15.12,23.3,17.79,33.19,8a20.21,20.21,0,0,0-.17-28.58l-3.3-3.3A1.4,1.4,0,0,0,31.34,5.72ZM24.06,26.1a3.25,3.25,0,1,1,0-4.6A3.26,3.26,0,0,1,24.06,26.1Z"/><path class="cls-2" d="M66.78,8.95H61.37v2.18h3.09v8.72a8.53,8.53,0,0,0-7.66-4.57,9.63,9.63,0,0,0-9.42,9.56A10.45,10.45,0,0,0,49,30.14a10,10,0,0,0,7.91,4.39,8.6,8.6,0,0,0,7.56-4.39V34h5.41V31.86H66.78Zm-9.63,23.4a7.43,7.43,0,1,1,0-14.86,7.43,7.43,0,0,1,0,14.86Z"/><polygon class="cls-3" points="76.1 15.59 70.69 15.59 70.69 17.77 73.78 17.77 73.78 31.86 70.62 31.86 70.62 34.04 79.19 34.04 79.19 31.86 76.1 31.86 76.1 15.59"/><rect class="cls-4" x="73.78" y="8.95" width="2.32" height="3.62"/><path class="cls-5" d="M89.17,15.27a9.63,9.63,0,1,0,8.93,13.6H95.64A7.35,7.35,0,0,1,82,25.67H98.87V25A9.56,9.56,0,0,0,89.17,15.27ZM82,23.78a7.42,7.42,0,0,1,7.13-6.4,7.52,7.52,0,0,1,7.56,6.4Z"/><path class="cls-6" d="M117.08,19.52a8.27,8.27,0,0,0-7.38-4.25,9.9,9.9,0,0,0-8,4.25,9.54,9.54,0,0,0-1.58,5.34A11.28,11.28,0,0,0,101.44,30c1.55,3,5.48,4.53,8.12,4.53A8.23,8.23,0,0,0,117.08,30v2a6.92,6.92,0,0,1-1.9,5.45,7.13,7.13,0,0,1-5.1,2.25A6.72,6.72,0,0,1,104,36h-2.67c1.23,3.65,5,5.62,8.61,5.62a9.59,9.59,0,0,0,7.17-3.06c2-2.14,2.28-4.29,2.28-7.1V17.77h3.09V15.59h-5.41Zm-7.2,12.83a7.47,7.47,0,1,1,7.38-7.49A7.5,7.5,0,0,1,109.87,32.35Z"/><path class="cls-7" d="M133,15.27a9.63,9.63,0,1,0,9.59,9.49A9.67,9.67,0,0,0,133,15.27Zm-.07,17a7.34,7.34,0,1,1,7.34-7.34A7.37,7.37,0,0,1,132.93,32.25Z"/><path class="cls-8" d="M174.5,22.93c0-2.14,0-4-1.48-5.73a7.24,7.24,0,0,0-5.41-2.39,6.74,6.74,0,0,0-6.15,3.94,6.39,6.39,0,0,0-5.83-3.94,6.22,6.22,0,0,0-5.41,3.27V15.27h-6.33v4h2.42V30h-2.42v4H153V30h-2.42v-5.8a5.48,5.48,0,0,1,1-3.83,3.66,3.66,0,0,1,3-1.37,3.44,3.44,0,0,1,3.09,1.72,7.43,7.43,0,0,1,.56,3.51V30h-2.42v4H165V30h-2.42V24a5.06,5.06,0,0,1,.88-3.55A4.16,4.16,0,0,1,166.59,19a3.67,3.67,0,0,1,3.06,1.55,7,7,0,0,1,.56,3.41v6h-2.42v4h9.14V30H174.5Z"/><polygon class="cls-9" points="185.05 15.27 178.34 15.27 178.34 19.28 180.76 19.28 180.76 30.03 178.3 30.03 178.3 34.04 187.47 34.04 187.47 30.03 185.05 30.03 185.05 15.27"/><rect class="cls-10" x="180.76" y="8.95" width="4.29" height="4.53"/><polygon class="cls-11" points="200.16 30.03 194.4 30.03 203.43 19.14 203.43 15.27 189.02 15.27 189.02 21.49 192.78 21.49 192.78 19.28 198.12 19.28 188.6 30.59 188.6 34.04 203.92 34.04 203.92 27.96 200.16 27.96 200.16 30.03"/><path class="cls-12" d="M214.57,14.71a9.76,9.76,0,0,0-9.77,10,9.76,9.76,0,0,0,9.87,9.8,9.63,9.63,0,0,0,8.86-6h-4.46a5.22,5.22,0,0,1-4.53,2.25,5.79,5.79,0,0,1-5.62-4.5h15.18l.14-1.51a9.81,9.81,0,0,0-2.64-7A10.05,10.05,0,0,0,214.57,14.71ZM208.88,23a5.81,5.81,0,0,1,5.48-4.43,6,6,0,0,1,5.9,4.43Z"/><path class="cls-13" d="M231.72,18.47v-3.2h-6.4v4h2.42V30h-2.42v4h9.14V30H232V25.29c0-1.76.21-3.27,1.62-4.46a5.71,5.71,0,0,1,3.69-1.37V15.06A6.24,6.24,0,0,0,231.72,18.47Z"/><path class="cls-14" d="M248.62,14.71a9.91,9.91,0,1,0,9.77,9.84A9.89,9.89,0,0,0,248.62,14.71Zm-.11,15.6a5.69,5.69,0,1,1,5.66-5.66A5.66,5.66,0,0,1,248.52,30.31Z"/></svg>